# xmcd
#
# Track frame offsets: 
#        150
#        11755
#        27017
#        38990
#        52075
#        62800
#        73227
#        85397
#        96922
#        110560
#        123282
#        134165
#        146272
#        158215
#        170865
#        180610
#        194002
#        203277
#        216612
#        228137
#        239567
#        253295
#        265982
#        279002
#        289025
#        301172
#        313465
#        325552
#        340915
#
# Disc length: 4706 seconds
#
# Revision: 2
# Processed by: cddbd v1.5.2PL0 Copyright (c) Steve Scherf et al.
# Submitted via: ExactAudioCopy v1.0b3
#
DISCID=c212601d
DTITLE=Ernest Tubb and The Texas Troubadours - Waltz Across Texas CD1
DYEAR=1998
DGENRE=Country
TTITLE0=Go To Sleep Conscience (Don't Hurt Me This Time)
TTITLE1=Danny Boy
TTITLE2=Through That Door
TTITLE3=What Kind Of God Do You Think You Are
TTITLE4=Rose City Chimes
TTITLE5=Rudolph The Red-Nosed Reindeer
TTITLE6=I Never Could Say No
TTITLE7=In And Out (Of Every Heart In Town)
TTITLE8=Steel Guitar Rag
TTITLE9=Redskin Rag
TTITLE10=Old Love, New Tears
TTITLE11=Out Of My Mind
TTITLE12=The Women Make A Fool Out Of Me
TTITLE13=Drivin' Nails In My Coffin
TTITLE14=Pick Me Up On Your Way Down
TTITLE15=Try Me One More Time
TTITLE16=Lover's Waltz
TTITLE17=Show Her Lots Of Gold
TTITLE18=I'm Looking High And Low For My Baby
TTITLE19=Go On Home
TTITLE20=Try Me One More Time
TTITLE21=Watching My Past Go By
TTITLE22=Show Her Lots Of Gold
TTITLE23=Bandera Waltz
TTITLE24=I Told You So
TTITLE25=I Loved You Once
TTITLE26=An Old Faded Photograph
TTITLE27=The Last Letter
TTITLE28=Out Of My Mind
EXTD=\nYEAR: 1998  ID3G:   2
EXTT0=
EXTT1=
EXTT2=
EXTT3=
EXTT4=
EXTT5=
EXTT6=
EXTT7=
EXTT8=
EXTT9=
EXTT10=
EXTT11=
EXTT12=
EXTT13=
EXTT14=
EXTT15=
EXTT16=
EXTT17=
EXTT18=
EXTT19=
EXTT20=
EXTT21=
EXTT22=
EXTT23=
EXTT24=
EXTT25=
EXTT26=
EXTT27=
EXTT28=
PLAYORDER=
